<svg width="20" height="20" viewBox="0 0 20 20" fill="none" xmlns="http://www.w3.org/2000/svg">
<path d="M2.22222 11.1263L0.0911458 11.7535L0.403646 12.819C1.62198 16.9727 5.46705 20 10 20C13.1448 20 15.9429 18.5273 17.7778 16.2478V18.8889H20V12.2222H13.3333V14.4444H16.3824C14.9785 16.458 12.6504 17.7778 10 17.7778C6.45512 17.7778 3.4804 15.4181 2.53472 12.194L2.22222 11.1263ZM10 0C6.85521 0 4.05715 1.4727 2.22222 3.75217V1.11111H0V7.77778H6.66667V5.55556H3.61762C5.02149 3.54202 7.34962 2.22222 10 2.22222C13.5449 2.22222 16.5196 4.58185 17.4653 7.80599L17.7778 8.8737L19.9089 8.24653L19.5964 7.18099C18.378 3.0273 14.5329 0 10 0Z" fill="white"/>
</svg>
